<svg id="Layer_1" data-name="Layer 1" xmlns="http://www.w3.org/2000/svg" viewBox="0 0 304.51 201"><defs><style>.cls-1{fill:none;}.cls-1,.cls-2,.cls-4{stroke:#fff;stroke-miterlimit:10;}.cls-2{font-size:26.68px;fill:#fff;}.cls-2,.cls-4{font-family:AvenirNext-Regular, Avenir Next;}.cls-3{letter-spacing:-0.01em;}.cls-4{font-size:13.34px;fill:#000051;}.cls-5{letter-spacing:-0.02em;}</style></defs><title>logo</title><rect class="cls-1" x="0.5" y="0.5" width="200" height="200"/><rect class="cls-1" x="193.26" y="152.64" width="7.24" height="10.91"/><rect class="cls-1" x="137.34" y="127.53" width="24.32" height="10.91"/><rect class="cls-1" x="165.3" y="127.53" width="24.32" height="10.91"/><rect class="cls-1" x="193.26" y="127.53" width="7.24" height="10.91"/><rect class="cls-1" x="79.61" y="185.74" width="24.32" height="10.91"/><rect class="cls-1" x="95.41" y="171.19" width="24.32" height="10.91"/><rect class="cls-1" x="123.37" y="171.19" width="24.32" height="10.91"/><rect class="cls-1" x="107.57" y="185.74" width="24.32" height="10.91"/><rect class="cls-1" x="135.53" y="185.74" width="24.32" height="10.91"/><rect class="cls-1" x="163.48" y="185.74" width="24.32" height="10.91"/><rect class="cls-1" x="191.44" y="185.74" width="9.06" height="10.91"/><rect class="cls-1" x="195.08" y="69.32" width="5.42" height="10.91"/><rect class="cls-1" x="181.1" y="83.87" width="19.4" height="10.91"/><rect class="cls-1" x="151.32" y="112.98" width="24.32" height="10.91"/><rect class="cls-1" x="167.12" y="98.43" width="24.32" height="10.91"/><rect class="cls-1" x="195.08" y="98.43" width="5.42" height="10.91"/><rect class="cls-1" x="179.28" y="112.98" width="21.22" height="10.91"/><text class="cls-2" transform="translate(8.55 164.96)">Home Builders</text><text class="cls-2" transform="translate(25.43 138.52)">Ultim<tspan class="cls-3" x="64.35" y="0">a</tspan><tspan x="78.33" y="0">te</tspan></text><text class="cls-4" transform="translate(153.23 180.7)">G<tspan class="cls-5" x="10.39" y="0">r</tspan><tspan x="14.95" y="0">oup</tspan></text></svg>